<?xml version="1.0" encoding="utf-8"?>
<!-- Generator: Adobe Illustrator 26.4.1, SVG Export Plug-In . SVG Version: 6.00 Build 0)  -->
<svg version="1.1" id="Layer_1" xmlns="http://www.w3.org/2000/svg" xmlns:xlink="http://www.w3.org/1999/xlink" x="0px" y="0px"
	 viewBox="0 0 20.52 47.74" style="enable-background:new 0 0 20.52 47.74;" xml:space="preserve">
<style type="text/css">
	.st0{opacity:0.9;}
	.st1{fill:#FFBBD4;}
	.st2{fill:#FFFFFF;}
	.st3{fill:#F77FBC;}
	.st4{fill:#E797DA;}
	.st5{fill:#D4ACF8;}
	.st6{fill:#FCD7FF;}
	.st7{fill:#D86198;}
	.st8{fill:#FF7DBE;}
	.st9{fill:#FF8DC6;}
	.st10{fill:#A2F7F9;}
	.st11{fill:#CADAFF;stroke:#CADAFF;stroke-width:1.7383;stroke-miterlimit:10;}
	.st12{fill:#E6F0FF;}
	.st13{fill:#FF8FB7;}
	.st14{fill:none;stroke:#FFE67D;stroke-width:0.585;stroke-linecap:round;stroke-miterlimit:10;}
	.st15{fill:#FF7BB1;}
	.st16{fill:#F993BC;}
	.st17{fill:#FFE67D;}
	.st18{fill:none;stroke:#000000;stroke-width:0.4557;stroke-miterlimit:10;}
	
		.st19{clip-path:url(#SVGID_00000145772600614562696970000009967874699821578117_);fill:none;stroke:#FFE67D;stroke-width:0.5737;stroke-linecap:round;stroke-miterlimit:10;}
	.st20{fill:#FF9CE3;}
	.st21{fill:#BC6CB5;}
	
		.st22{clip-path:url(#SVGID_00000114755152585629970840000005627621087787718830_);fill:none;stroke:#FFE67D;stroke-width:0.5737;stroke-linecap:round;stroke-miterlimit:10;}
	.st23{fill:#DFC5F9;}
	.st24{fill:#A780D1;}
	
		.st25{clip-path:url(#SVGID_00000078043739352627369140000009793776833576247207_);fill:none;stroke:#FFE67D;stroke-width:0.5737;stroke-linecap:round;stroke-miterlimit:10;}
	.st26{fill:#CAA5CE;}
	
		.st27{clip-path:url(#SVGID_00000102511427772706869500000003613402954501987726_);fill:none;stroke:#FFE67D;stroke-width:0.5737;stroke-linecap:round;stroke-miterlimit:10;}
	.st28{fill:#CE6796;}
	
		.st29{clip-path:url(#SVGID_00000115495683228178853540000001737728268531726748_);fill:none;stroke:#FFE67D;stroke-width:0.5737;stroke-linecap:round;stroke-miterlimit:10;}
	.st30{fill:#6EA9FF;}
	.st31{fill:#3A83DB;}
	
		.st32{clip-path:url(#SVGID_00000114767584597897004830000005362115520490398851_);fill:none;stroke:#FFE67D;stroke-width:0.5737;stroke-linecap:round;stroke-miterlimit:10;}
	
		.st33{clip-path:url(#SVGID_00000012430429498450492190000015726324239155963293_);fill:none;stroke:#FFE67D;stroke-width:0.5737;stroke-linecap:round;stroke-miterlimit:10;}
	.st34{fill:none;stroke:#E9BACF;stroke-miterlimit:10;}
	.st35{fill:#D7FEFF;}
	
		.st36{clip-path:url(#SVGID_00000032607306074311789430000006053869510014032259_);fill:none;stroke:#FFE67D;stroke-width:0.5737;stroke-linecap:round;stroke-miterlimit:10;}
	
		.st37{clip-path:url(#SVGID_00000057861651226605108750000012055880504998353298_);fill:none;stroke:#FFE67D;stroke-width:0.5737;stroke-linecap:round;stroke-miterlimit:10;}
	
		.st38{clip-path:url(#SVGID_00000139275620291162151830000001917020631738214803_);fill:none;stroke:#FFE67D;stroke-width:0.5737;stroke-linecap:round;stroke-miterlimit:10;}
	
		.st39{clip-path:url(#SVGID_00000079451151975862295250000003774613662812061873_);fill:none;stroke:#FFE67D;stroke-width:0.5737;stroke-linecap:round;stroke-miterlimit:10;}
	
		.st40{clip-path:url(#SVGID_00000062901199982244733710000005405949223757511064_);fill:none;stroke:#FFE67D;stroke-width:0.5737;stroke-linecap:round;stroke-miterlimit:10;}
	
		.st41{clip-path:url(#SVGID_00000173157840015689056110000002105111486199744921_);fill:none;stroke:#FFE67D;stroke-width:0.5737;stroke-linecap:round;stroke-miterlimit:10;}
	
		.st42{clip-path:url(#SVGID_00000149351294150245773780000017478269727977111465_);fill:none;stroke:#FFE67D;stroke-width:0.5737;stroke-linecap:round;stroke-miterlimit:10;}
	
		.st43{clip-path:url(#SVGID_00000075840986065637436650000004740049539654118072_);fill:none;stroke:#FFE67D;stroke-width:0.5737;stroke-linecap:round;stroke-miterlimit:10;}
	
		.st44{clip-path:url(#SVGID_00000137836465490006015420000011392570275388483498_);fill:none;stroke:#FFE67D;stroke-width:0.5737;stroke-linecap:round;stroke-miterlimit:10;}
	.st45{opacity:0.85;}
	.st46{fill:#E698DC;}
	.st47{fill:none;}
	.st48{fill:#FFC4D9;}
	.st49{opacity:0.93;}
	
		.st50{clip-path:url(#SVGID_00000048486179185288860900000015599612423185948296_);fill:none;stroke:#FFE67D;stroke-width:0.5737;stroke-linecap:round;stroke-miterlimit:10;}
	
		.st51{clip-path:url(#SVGID_00000176760072682214910220000015525580540014010247_);fill:none;stroke:#FFE67D;stroke-width:0.5737;stroke-linecap:round;stroke-miterlimit:10;}
	.st52{fill:none;stroke:#FFE67D;stroke-width:0.6098;stroke-linecap:round;stroke-miterlimit:10;}
	
		.st53{clip-path:url(#SVGID_00000075885271138519194510000007405426621778626749_);fill:none;stroke:#FFE67D;stroke-width:0.5737;stroke-linecap:round;stroke-miterlimit:10;}
	
		.st54{clip-path:url(#SVGID_00000087381946651303705770000013383477272448666030_);fill:none;stroke:#FFE67D;stroke-width:0.5737;stroke-linecap:round;stroke-miterlimit:10;}
	.st55{fill:#FF7B7B;}
	.st56{fill:#DD75A5;}
	.st57{fill:none;stroke:#FFE67D;stroke-width:0.7329;stroke-linecap:round;stroke-miterlimit:10;}
	
		.st58{clip-path:url(#SVGID_00000147928221621766042960000008329490330232924345_);fill:none;stroke:#FFE67D;stroke-width:0.5737;stroke-linecap:round;stroke-miterlimit:10;}
	
		.st59{clip-path:url(#SVGID_00000097475164104928350620000008658261160107572902_);fill:none;stroke:#FFE67D;stroke-width:0.5737;stroke-linecap:round;stroke-miterlimit:10;}
	
		.st60{clip-path:url(#SVGID_00000087372833460514727640000017291703473621156273_);fill:none;stroke:#FFE67D;stroke-width:0.5737;stroke-linecap:round;stroke-miterlimit:10;}
	
		.st61{clip-path:url(#SVGID_00000135669940543511162490000004190066576729949876_);fill:none;stroke:#FFE67D;stroke-width:0.5737;stroke-linecap:round;stroke-miterlimit:10;}
	.st62{opacity:0.89;}
	.st63{fill:#CADAFF;}
	.st64{fill:#D1DFFF;}
	.st65{fill:none;stroke:#FFE67D;stroke-width:0.5557;stroke-linecap:round;stroke-miterlimit:10;}
	
		.st66{clip-path:url(#SVGID_00000183208872882737713370000003712079939244718721_);fill:none;stroke:#FFE67D;stroke-width:0.5737;stroke-linecap:round;stroke-miterlimit:10;}
	
		.st67{clip-path:url(#SVGID_00000026162271750695485970000007312961912999591083_);fill:none;stroke:#FFE67D;stroke-width:0.5737;stroke-linecap:round;stroke-miterlimit:10;}
	.st68{opacity:0.84;}
	.st69{fill:#FCDCFF;}
	.st70{fill:none;stroke:#FFE67D;stroke-width:0.4588;stroke-linecap:round;stroke-miterlimit:10;}
	
		.st71{clip-path:url(#SVGID_00000051369116469372308260000013924937288299250308_);fill:none;stroke:#FFE67D;stroke-width:0.5737;stroke-linecap:round;stroke-miterlimit:10;}
	
		.st72{clip-path:url(#SVGID_00000160158479159024122920000010994518101017632156_);fill:none;stroke:#FFE67D;stroke-width:0.5737;stroke-linecap:round;stroke-miterlimit:10;}
	
		.st73{clip-path:url(#SVGID_00000104696583171841017940000011673285775285333926_);fill:none;stroke:#FFE67D;stroke-width:0.5737;stroke-linecap:round;stroke-miterlimit:10;}
	
		.st74{clip-path:url(#SVGID_00000089568578422813001120000014263519268775780250_);fill:none;stroke:#FFE67D;stroke-width:0.5737;stroke-linecap:round;stroke-miterlimit:10;}
	
		.st75{clip-path:url(#SVGID_00000083061746816149945920000014458278499993447827_);fill:none;stroke:#FFE67D;stroke-width:0.5737;stroke-linecap:round;stroke-miterlimit:10;}
	
		.st76{clip-path:url(#SVGID_00000165934629542664757170000002067020461831127738_);fill:none;stroke:#FFE67D;stroke-width:0.5737;stroke-linecap:round;stroke-miterlimit:10;}
	.st77{fill:#F792FF;}
	
		.st78{clip-path:url(#SVGID_00000088831302081736637570000014941469541042254256_);fill:none;stroke:#FFE67D;stroke-width:0.5737;stroke-linecap:round;stroke-miterlimit:10;}
	
		.st79{clip-path:url(#SVGID_00000089574490784437529440000010878184712892968851_);fill:none;stroke:#FFE67D;stroke-width:0.5737;stroke-linecap:round;stroke-miterlimit:10;}
	.st80{fill:#F87DBA;}
</style>
<g>
	<path class="st1" d="M5.26,38c-0.33,0-0.64-0.14-0.86-0.39c-0.22-0.25-0.31-0.58-0.27-0.91c1.25-8.58,1.25-17.26-0.01-25.78
		c-0.05-0.33,0.05-0.66,0.26-0.91C4.6,9.76,4.92,9.61,5.25,9.61l10.15,0c0.33,0,0.64,0.14,0.86,0.39c0.22,0.25,0.31,0.58,0.27,0.91
		c-1.23,8.56-1.23,17.23-0.02,25.79c0.05,0.33-0.05,0.66-0.27,0.91C16.03,37.86,15.72,38,15.39,38L5.26,38z"/>
	<path class="st1" d="M12.02,19.81c-1.1,0-2.13-0.81-2.46-1.94c-0.24-0.84-0.12-1.79,0.36-2.68c0.37-0.69,0.88-1.24,1.33-1.73
		l3.33-3.59c0.43-0.46,1.15-0.49,1.61-0.06c0.46,0.43,0.49,1.15,0.06,1.61L12.92,15c-0.11,0.12-0.22,0.24-0.33,0.36
		c0.41,0.03,0.8,0.21,1.12,0.49c0.39,0.36,0.62,0.86,0.67,1.41c0.05,0.65-0.18,1.3-0.62,1.78C13.31,19.53,12.69,19.8,12.02,19.81
		C12.03,19.81,12.03,19.81,12.02,19.81z"/>
	<path class="st1" d="M16.57,37.87c-0.22,0.3-0.57,0.46-0.92,0.46c-0.23,0-0.47-0.07-0.67-0.22c-0.55-0.4-0.9-1.02-1.21-1.57
		c-0.13-0.24-0.27-0.48-0.39-0.63c-0.47-0.61-1.1-1.06-1.84-1.31c-0.32-0.11-0.69-0.19-1.08-0.28c-0.77-0.17-1.64-0.37-2.41-0.84
		c-1.43-0.89-1.82-2.45-2.13-3.7l-0.05-0.19c-0.11-0.45-0.2-0.76-0.28-0.96c-0.24-0.03-0.47-0.13-0.66-0.32"/>
	<path class="st1" d="M11.46,34.23c-0.14,0-0.28-0.03-0.42-0.08c-0.19-0.08-1.91-0.78-2.79-2.43s-0.54-3.47-0.5-3.67
		c0.07-0.33,0.28-0.61,0.57-0.77c0.17-0.09,0.35-0.14,0.54-0.14c0.14,0,0.28,0.03,0.42,0.08c0.19,0.08,1.91,0.78,2.79,2.43
		c0.89,1.65,0.54,3.47,0.5,3.67c-0.07,0.33-0.28,0.61-0.57,0.77C11.83,34.18,11.65,34.23,11.46,34.23z"/>
	<path class="st1" d="M10.62,17.85c-0.59,0-1.09-0.46-1.13-1.05c-0.06-0.78-0.43-1.56-1.01-2.14c-0.28-0.27-0.67-0.5-1.08-0.73
		c-0.56-0.32-1.19-0.68-1.71-1.25c-0.84-0.93-0.89-1.89-0.84-2.7c0.04-0.63,0.59-1.1,1.21-1.05c0.63,0.04,1.1,0.59,1.05,1.21
		c-0.04,0.59,0.04,0.78,0.26,1.02c0.28,0.31,0.7,0.55,1.15,0.8c0.5,0.28,1.06,0.61,1.55,1.08c0.98,0.96,1.59,2.27,1.69,3.59
		c0.05,0.63-0.43,1.17-1.05,1.22C10.67,17.85,10.65,17.85,10.62,17.85z"/>
	<path class="st24" d="M16.53,10.91c0.04-0.28,0.08-0.55,0.13-0.82c0.7-0.31,1.19-1,1.19-1.82V6.54c0-1.1-0.9-2-2-2h-1.86
		c-0.13-0.98-0.96-1.73-1.97-1.73H8.63c-1.01,0-1.84,0.76-1.97,1.73H4.8c-1.1,0-2,0.9-2,2v1.74c0,0.82,0.49,1.51,1.2,1.82
		c0.04,0.27,0.09,0.55,0.13,0.82c0,0,0,0,0,0c0,0,0,0,0,0c1.26,8.52,1.26,17.2,0.01,25.78c0,0,0,0,0,0c0,0,0,0,0,0
		c-0.03,0.18-0.06,0.36-0.09,0.54c-0.73,0.3-1.25,0.99-1.25,1.83v1.74c0,1.1,0.9,2,2,2h1.86c0.13,0.98,0.96,1.73,1.97,1.73h3.38
		c1.01,0,1.84-0.75,1.97-1.73h1.86c1.1,0,2-0.9,2-2v-1.74c0-0.84-0.52-1.53-1.25-1.83c-0.03-0.17-0.06-0.36-0.08-0.53c0,0,0,0,0,0
		c0,0,0,0,0,0C15.29,28.15,15.3,19.47,16.53,10.91C16.53,10.91,16.53,10.91,16.53,10.91z"/>
	<g>
		<g>
			<g>
				<path class="st16" d="M15.94,7.41c-0.2,1.11-0.38,2.23-0.54,3.34l-10.15,0C5.09,9.64,4.9,8.52,4.69,7.41L15.94,7.41z"/>
				<path class="st2" d="M15.39,36.86l-10.13,0c1.27-8.72,1.27-17.43-0.01-26.11l10.15,0C14.15,19.45,14.15,28.16,15.39,36.86z"/>
				<path class="st16" d="M15.94,40.34l-11.25,0c0.21-1.16,0.4-2.31,0.57-3.47l10.13,0C15.55,38.02,15.74,39.18,15.94,40.34z"/>
				<rect x="7.77" y="3.94" class="st2" width="5.11" height="3.46"/>
				<rect x="3.94" y="5.67" class="st17" width="12.77" height="3.46"/>
				<rect x="7.77" y="39.93" class="st2" width="5.11" height="3.46"/>
				<rect x="3.94" y="38.2" class="st17" width="12.77" height="3.46"/>
			</g>
		</g>
		<g>
			<defs>
				<path id="SVGID_00000047044328856333990100000010564917017905350820_" d="M15.39,36.86l-10.13,0
					c1.27-8.72,1.27-17.43-0.01-26.11l10.15,0C14.15,19.45,14.15,28.16,15.39,36.86z"/>
			</defs>
			<clipPath id="SVGID_00000109722548968460211710000001563720121977434047_">
				<use xlink:href="#SVGID_00000047044328856333990100000010564917017905350820_"  style="overflow:visible;"/>
			</clipPath>
			
				<path style="clip-path:url(#SVGID_00000109722548968460211710000001563720121977434047_);fill:none;stroke:#FFE67D;stroke-width:0.5737;stroke-linecap:round;stroke-miterlimit:10;" d="
				M15.42,10.64c-1.11,1.2-2.22,2.4-3.33,3.59c-0.43,0.46-0.86,0.93-1.16,1.49c-0.3,0.56-0.45,1.22-0.27,1.83
				c0.18,0.61,0.74,1.12,1.37,1.12c0.34,0,0.67-0.15,0.9-0.39c0.23-0.25,0.35-0.59,0.32-0.92c-0.02-0.25-0.12-0.49-0.3-0.66
				s-0.45-0.25-0.69-0.17c-0.24,0.07-0.42,0.31-0.41,0.56c0.01,0.21,0.29,0.57,0.52,0.4"/>
			
				<path style="clip-path:url(#SVGID_00000109722548968460211710000001563720121977434047_);fill:none;stroke:#FFE67D;stroke-width:0.5737;stroke-linecap:round;stroke-miterlimit:10;" d="
				M9.76,14.88c-0.68,0.37-1.26,0.93-1.65,1.61c-0.81,1.4-0.83,3.25-1.96,4.41c-0.32,0.33-0.79,0.59-1.23,0.47"/>
			
				<path style="clip-path:url(#SVGID_00000109722548968460211710000001563720121977434047_);fill:none;stroke:#FFE67D;stroke-width:0.5737;stroke-linecap:round;stroke-miterlimit:10;" d="
				M15.65,37.2c-0.56-0.41-0.93-1.42-1.37-1.98c-0.61-0.78-1.42-1.37-2.37-1.69c-1.05-0.36-2.31-0.43-3.26-1.02
				C7.59,31.84,7.29,30.55,7,29.4c-0.06-0.25-0.56-2.62-1.27-1.9"/>
			
				<path style="clip-path:url(#SVGID_00000109722548968460211710000001563720121977434047_);fill:none;stroke:#FFE67D;stroke-width:0.5737;stroke-linecap:round;stroke-miterlimit:10;" d="
				M11.08,30.19c0.72,1.33,0.38,2.9,0.38,2.9s-1.49-0.59-2.21-1.91c-0.72-1.33-0.38-2.9-0.38-2.9S10.36,28.86,11.08,30.19z"/>
			
				<path style="clip-path:url(#SVGID_00000109722548968460211710000001563720121977434047_);fill:none;stroke:#FFE67D;stroke-width:0.5737;stroke-linecap:round;stroke-miterlimit:10;" d="
				M9.24,21.84c0.72,1.33,0.38,2.9,0.38,2.9s-1.49-0.59-2.21-1.91c-0.72-1.33-0.38-2.9-0.38-2.9S8.52,20.51,9.24,21.84z"/>
			
				<path style="clip-path:url(#SVGID_00000109722548968460211710000001563720121977434047_);fill:none;stroke:#FFE67D;stroke-width:0.5737;stroke-linecap:round;stroke-miterlimit:10;" d="
				M15.49,18.29c-0.25,0.76-0.67,1.54-1.13,2.22c-0.74,1.12-1.84,1.94-2.46,3.15c-0.75,1.46-1.08,3.37-0.25,4.87
				c0.3,0.53,0.73,0.91,1.17,1.32c0.5,0.46,1.01,0.92,1.53,1.35c0.52,0.42,1,0.83,1.3,1.45c0.19,0.4,0.49,0.92,0.39,1.34"/>
			
				<path style="clip-path:url(#SVGID_00000109722548968460211710000001563720121977434047_);fill:none;stroke:#FFE67D;stroke-width:0.5737;stroke-linecap:round;stroke-miterlimit:10;" d="
				M10.62,16.71c-0.08-1.08-0.58-2.11-1.35-2.86c-0.81-0.79-1.99-1.1-2.75-1.94c-0.51-0.57-0.6-1.13-0.55-1.86"/>
		</g>
	</g>
</g>
</svg>
