<?xml version="1.0" encoding="utf-8"?>
<!-- Generator: Adobe Illustrator 26.4.1, SVG Export Plug-In . SVG Version: 6.00 Build 0)  -->
<svg version="1.1" id="Layer_1" xmlns="http://www.w3.org/2000/svg" xmlns:xlink="http://www.w3.org/1999/xlink" x="0px" y="0px"
	 viewBox="0 0 20.52 47.74" style="enable-background:new 0 0 20.52 47.74;" xml:space="preserve">
<style type="text/css">
	.st0{opacity:0.9;}
	.st1{fill:#FFBBD4;}
	.st2{fill:#FFFFFF;}
	.st3{fill:#F77FBC;}
	.st4{fill:#E797DA;}
	.st5{fill:#D4ACF8;}
	.st6{fill:#FCD7FF;}
	.st7{fill:#D86198;}
	.st8{fill:#FF7DBE;}
	.st9{fill:#FF8DC6;}
	.st10{fill:#A2F7F9;}
	.st11{fill:#CADAFF;stroke:#CADAFF;stroke-width:1.7383;stroke-miterlimit:10;}
	.st12{fill:#E6F0FF;}
	.st13{fill:#FF8FB7;}
	.st14{fill:none;stroke:#FFE67D;stroke-width:0.585;stroke-linecap:round;stroke-miterlimit:10;}
	.st15{fill:#FF7BB1;}
	.st16{fill:#F993BC;}
	.st17{fill:#FFE67D;}
	.st18{fill:none;stroke:#000000;stroke-width:0.4557;stroke-miterlimit:10;}
	
		.st19{clip-path:url(#SVGID_00000134948759503248188320000015416558410251069076_);fill:none;stroke:#FFE67D;stroke-width:0.5737;stroke-linecap:round;stroke-miterlimit:10;}
	.st20{fill:#FF9CE3;}
	.st21{fill:#BC6CB5;}
	
		.st22{clip-path:url(#SVGID_00000004530479669430515200000014441812266622902185_);fill:none;stroke:#FFE67D;stroke-width:0.5737;stroke-linecap:round;stroke-miterlimit:10;}
	.st23{fill:#DFC5F9;}
	.st24{fill:#A780D1;}
	
		.st25{clip-path:url(#SVGID_00000063610565976326428230000003089566663316960149_);fill:none;stroke:#FFE67D;stroke-width:0.5737;stroke-linecap:round;stroke-miterlimit:10;}
	.st26{fill:#CAA5CE;}
	
		.st27{clip-path:url(#SVGID_00000014620115886421122330000018390489141487941279_);fill:none;stroke:#FFE67D;stroke-width:0.5737;stroke-linecap:round;stroke-miterlimit:10;}
	.st28{fill:#CE6796;}
	
		.st29{clip-path:url(#SVGID_00000125587230629872711130000006115022515156143264_);fill:none;stroke:#FFE67D;stroke-width:0.5737;stroke-linecap:round;stroke-miterlimit:10;}
	.st30{fill:#6EA9FF;}
	.st31{fill:#3A83DB;}
	
		.st32{clip-path:url(#SVGID_00000138554467428044267730000018144402918605416870_);fill:none;stroke:#FFE67D;stroke-width:0.5737;stroke-linecap:round;stroke-miterlimit:10;}
	
		.st33{clip-path:url(#SVGID_00000045610905171522954590000014146299819151598227_);fill:none;stroke:#FFE67D;stroke-width:0.5737;stroke-linecap:round;stroke-miterlimit:10;}
	.st34{fill:none;stroke:#E9BACF;stroke-miterlimit:10;}
	.st35{fill:#D7FEFF;}
	
		.st36{clip-path:url(#SVGID_00000112598070054150184090000009228960390061877151_);fill:none;stroke:#FFE67D;stroke-width:0.5737;stroke-linecap:round;stroke-miterlimit:10;}
	
		.st37{clip-path:url(#SVGID_00000161622493638221715940000005948450303767740813_);fill:none;stroke:#FFE67D;stroke-width:0.5737;stroke-linecap:round;stroke-miterlimit:10;}
	
		.st38{clip-path:url(#SVGID_00000038376403483265658160000007651370094029295798_);fill:none;stroke:#FFE67D;stroke-width:0.5737;stroke-linecap:round;stroke-miterlimit:10;}
	
		.st39{clip-path:url(#SVGID_00000156545529620636204030000015317507827406766494_);fill:none;stroke:#FFE67D;stroke-width:0.5737;stroke-linecap:round;stroke-miterlimit:10;}
	
		.st40{clip-path:url(#SVGID_00000009558930596541731060000011558226488694969785_);fill:none;stroke:#FFE67D;stroke-width:0.5737;stroke-linecap:round;stroke-miterlimit:10;}
	
		.st41{clip-path:url(#SVGID_00000160152414996065628890000003745896861763946896_);fill:none;stroke:#FFE67D;stroke-width:0.5737;stroke-linecap:round;stroke-miterlimit:10;}
	
		.st42{clip-path:url(#SVGID_00000164510843589671901880000006375392801533572497_);fill:none;stroke:#FFE67D;stroke-width:0.5737;stroke-linecap:round;stroke-miterlimit:10;}
	
		.st43{clip-path:url(#SVGID_00000106826158815085383290000006475752444741995179_);fill:none;stroke:#FFE67D;stroke-width:0.5737;stroke-linecap:round;stroke-miterlimit:10;}
	
		.st44{clip-path:url(#SVGID_00000098919026903303901970000011372292894575762576_);fill:none;stroke:#FFE67D;stroke-width:0.5737;stroke-linecap:round;stroke-miterlimit:10;}
	.st45{opacity:0.85;}
	.st46{fill:#E698DC;}
	.st47{fill:none;}
	.st48{fill:#FFC4D9;}
	.st49{opacity:0.93;}
	
		.st50{clip-path:url(#SVGID_00000020359771693652963850000004114598160998539440_);fill:none;stroke:#FFE67D;stroke-width:0.5737;stroke-linecap:round;stroke-miterlimit:10;}
	
		.st51{clip-path:url(#SVGID_00000157293682393832469540000002568658906390027143_);fill:none;stroke:#FFE67D;stroke-width:0.5737;stroke-linecap:round;stroke-miterlimit:10;}
	.st52{fill:none;stroke:#FFE67D;stroke-width:0.6098;stroke-linecap:round;stroke-miterlimit:10;}
	
		.st53{clip-path:url(#SVGID_00000081641448284059062420000001591134104712350392_);fill:none;stroke:#FFE67D;stroke-width:0.5737;stroke-linecap:round;stroke-miterlimit:10;}
	
		.st54{clip-path:url(#SVGID_00000106116987382339747940000000991698207824060047_);fill:none;stroke:#FFE67D;stroke-width:0.5737;stroke-linecap:round;stroke-miterlimit:10;}
	.st55{fill:#FF7B7B;}
	.st56{fill:#DD75A5;}
	.st57{fill:none;stroke:#FFE67D;stroke-width:0.7329;stroke-linecap:round;stroke-miterlimit:10;}
	
		.st58{clip-path:url(#SVGID_00000103228136865655306640000001574428002244058015_);fill:none;stroke:#FFE67D;stroke-width:0.5737;stroke-linecap:round;stroke-miterlimit:10;}
	
		.st59{clip-path:url(#SVGID_00000172442487313176725870000004166598713882480811_);fill:none;stroke:#FFE67D;stroke-width:0.5737;stroke-linecap:round;stroke-miterlimit:10;}
	
		.st60{clip-path:url(#SVGID_00000102524238885759436670000014763946576874946225_);fill:none;stroke:#FFE67D;stroke-width:0.5737;stroke-linecap:round;stroke-miterlimit:10;}
	
		.st61{clip-path:url(#SVGID_00000153687003517763749590000016433783559017983391_);fill:none;stroke:#FFE67D;stroke-width:0.5737;stroke-linecap:round;stroke-miterlimit:10;}
	.st62{opacity:0.89;}
	.st63{fill:#CADAFF;}
	.st64{fill:#D1DFFF;}
	.st65{fill:none;stroke:#FFE67D;stroke-width:0.5557;stroke-linecap:round;stroke-miterlimit:10;}
	
		.st66{clip-path:url(#SVGID_00000019645052647431672990000010453075688792904616_);fill:none;stroke:#FFE67D;stroke-width:0.5737;stroke-linecap:round;stroke-miterlimit:10;}
	
		.st67{clip-path:url(#SVGID_00000070806153292002793040000001503232074093100443_);fill:none;stroke:#FFE67D;stroke-width:0.5737;stroke-linecap:round;stroke-miterlimit:10;}
	.st68{opacity:0.84;}
	.st69{fill:#FCDCFF;}
	.st70{fill:none;stroke:#FFE67D;stroke-width:0.4588;stroke-linecap:round;stroke-miterlimit:10;}
	
		.st71{clip-path:url(#SVGID_00000043422926349489696580000016655724966049844657_);fill:none;stroke:#FFE67D;stroke-width:0.5737;stroke-linecap:round;stroke-miterlimit:10;}
	
		.st72{clip-path:url(#SVGID_00000003813912877061145320000017135337828623547037_);fill:none;stroke:#FFE67D;stroke-width:0.5737;stroke-linecap:round;stroke-miterlimit:10;}
	
		.st73{clip-path:url(#SVGID_00000109711504327169210100000013088805664120952736_);fill:none;stroke:#FFE67D;stroke-width:0.5737;stroke-linecap:round;stroke-miterlimit:10;}
	
		.st74{clip-path:url(#SVGID_00000056400665562259600300000017854297974922200748_);fill:none;stroke:#FFE67D;stroke-width:0.5737;stroke-linecap:round;stroke-miterlimit:10;}
	
		.st75{clip-path:url(#SVGID_00000153686418625053440900000008210318050187395748_);fill:none;stroke:#FFE67D;stroke-width:0.5737;stroke-linecap:round;stroke-miterlimit:10;}
	
		.st76{clip-path:url(#SVGID_00000043458940802337046870000002917056090537174696_);fill:none;stroke:#FFE67D;stroke-width:0.5737;stroke-linecap:round;stroke-miterlimit:10;}
	.st77{fill:#F792FF;}
	
		.st78{clip-path:url(#SVGID_00000148633997177536268500000012510991328736856236_);fill:none;stroke:#FFE67D;stroke-width:0.5737;stroke-linecap:round;stroke-miterlimit:10;}
	
		.st79{clip-path:url(#SVGID_00000110451186952384550130000007442294409630107779_);fill:none;stroke:#FFE67D;stroke-width:0.5737;stroke-linecap:round;stroke-miterlimit:10;}
	.st80{fill:#F87DBA;}
</style>
<g>
	<path class="st1" d="M11.45,34.23c-0.14,0-0.28-0.03-0.42-0.08c-0.19-0.08-1.91-0.78-2.79-2.43c-0.89-1.65-0.54-3.47-0.5-3.67
		c0.07-0.33,0.28-0.61,0.57-0.77c0.17-0.09,0.35-0.14,0.54-0.14c0.14,0,0.28,0.03,0.42,0.08c0.19,0.08,1.91,0.78,2.79,2.43
		c0.89,1.65,0.54,3.47,0.5,3.67c-0.07,0.33-0.28,0.61-0.57,0.77C11.82,34.18,11.64,34.23,11.45,34.23z"/>
	<path class="st1" d="M10.61,17.85c-0.59,0-1.09-0.46-1.13-1.05c-0.06-0.78-0.43-1.56-1.01-2.14c-0.28-0.27-0.67-0.5-1.08-0.73
		c-0.56-0.32-1.19-0.68-1.71-1.25c-0.84-0.93-0.89-1.89-0.84-2.7c0.04-0.63,0.59-1.1,1.21-1.05c0.63,0.04,1.1,0.59,1.05,1.21
		c-0.04,0.59,0.04,0.78,0.26,1.02c0.28,0.31,0.7,0.55,1.15,0.8c0.5,0.28,1.06,0.61,1.55,1.08c0.98,0.96,1.59,2.27,1.69,3.59
		c0.05,0.63-0.43,1.17-1.05,1.22C10.66,17.85,10.64,17.85,10.61,17.85z"/>
	<path class="st26" d="M16.58,37.24c-0.03-0.17-0.06-0.36-0.08-0.53c0,0,0,0,0,0c0,0,0,0,0,0c-1.22-8.56-1.21-17.24,0.02-25.79
		c0,0,0,0,0,0c0.04-0.28,0.08-0.55,0.13-0.82c0.7-0.31,1.19-1,1.19-1.82V6.54c0-1.1-0.9-2-2-2h-1.86C13.84,3.56,13.02,2.8,12,2.8
		H8.62c-1.01,0-1.84,0.76-1.97,1.73H4.79c-1.1,0-2,0.9-2,2v1.74c0,0.82,0.49,1.51,1.2,1.82c0.04,0.27,0.09,0.55,0.13,0.82
		c0,0,0,0,0,0c0,0,0,0,0,0c1.26,8.52,1.27,17.2,0.01,25.78c0,0,0,0,0,0c0,0,0,0,0,0c-0.03,0.18-0.06,0.36-0.09,0.54
		c-0.73,0.3-1.25,0.99-1.25,1.83v1.74c0,1.1,0.9,2,2,2h1.86c0.13,0.98,0.96,1.73,1.97,1.73l3.38,0c1.01,0,1.84-0.75,1.97-1.73h1.86
		c1.1,0,2-0.9,2-2v-1.74C17.84,38.23,17.31,37.54,16.58,37.24z"/>
	<g>
		<g>
			<g>
				<path class="st16" d="M15.93,7.41c-0.2,1.11-0.38,2.23-0.54,3.34l-10.15,0C5.08,9.64,4.89,8.52,4.68,7.41L15.93,7.41z"/>
				<path class="st2" d="M15.38,36.86l-10.13,0c1.27-8.72,1.27-17.43-0.01-26.11l10.15,0C14.14,19.45,14.14,28.16,15.38,36.86z"/>
				<path class="st16" d="M15.93,40.34l-11.25,0c0.21-1.16,0.4-2.31,0.57-3.47l10.13,0C15.54,38.02,15.73,39.18,15.93,40.34z"/>
				<rect x="7.76" y="3.94" class="st2" width="5.11" height="3.46"/>
				<rect x="3.93" y="5.67" class="st6" width="12.77" height="3.46"/>
				<rect x="7.76" y="39.93" class="st2" width="5.11" height="3.46"/>
				<rect x="3.93" y="38.2" class="st6" width="12.77" height="3.46"/>
			</g>
		</g>
		<g>
			<defs>
				<path id="SVGID_00000178903657295248952770000007661980419655678890_" d="M15.38,36.86l-10.13,0
					c1.27-8.72,1.27-17.43-0.01-26.11l10.15,0C14.14,19.45,14.14,28.16,15.38,36.86z"/>
			</defs>
			<clipPath id="SVGID_00000168076516847958179680000017786990261071983543_">
				<use xlink:href="#SVGID_00000178903657295248952770000007661980419655678890_"  style="overflow:visible;"/>
			</clipPath>
			
				<path style="clip-path:url(#SVGID_00000168076516847958179680000017786990261071983543_);fill:none;stroke:#FFE67D;stroke-width:0.5737;stroke-linecap:round;stroke-miterlimit:10;" d="
				M15.41,10.64c-1.11,1.2-2.22,2.4-3.33,3.59c-0.43,0.46-0.86,0.93-1.16,1.49s-0.45,1.22-0.27,1.83s0.74,1.12,1.37,1.12
				c0.34,0,0.67-0.15,0.9-0.39c0.23-0.25,0.35-0.59,0.32-0.92c-0.02-0.25-0.12-0.49-0.3-0.66c-0.18-0.17-0.45-0.25-0.69-0.17
				c-0.24,0.07-0.42,0.31-0.41,0.56c0.01,0.21,0.29,0.57,0.52,0.4"/>
			
				<path style="clip-path:url(#SVGID_00000168076516847958179680000017786990261071983543_);fill:none;stroke:#FFE67D;stroke-width:0.5737;stroke-linecap:round;stroke-miterlimit:10;" d="
				M9.76,14.88c-0.68,0.37-1.26,0.93-1.65,1.61c-0.81,1.4-0.83,3.25-1.96,4.41c-0.32,0.33-0.79,0.59-1.23,0.47"/>
			
				<path style="clip-path:url(#SVGID_00000168076516847958179680000017786990261071983543_);fill:none;stroke:#FFE67D;stroke-width:0.5737;stroke-linecap:round;stroke-miterlimit:10;" d="
				M15.64,37.2c-0.56-0.41-0.93-1.42-1.37-1.98c-0.61-0.78-1.42-1.37-2.37-1.69c-1.05-0.36-2.31-0.43-3.26-1.02
				c-1.07-0.66-1.37-1.96-1.66-3.11c-0.06-0.25-0.56-2.62-1.27-1.9"/>
			
				<path style="clip-path:url(#SVGID_00000168076516847958179680000017786990261071983543_);fill:none;stroke:#FFE67D;stroke-width:0.5737;stroke-linecap:round;stroke-miterlimit:10;" d="
				M11.07,30.19c0.72,1.33,0.38,2.9,0.38,2.9s-1.49-0.59-2.21-1.91c-0.72-1.33-0.38-2.9-0.38-2.9S10.35,28.86,11.07,30.19z"/>
			
				<path style="clip-path:url(#SVGID_00000168076516847958179680000017786990261071983543_);fill:none;stroke:#FFE67D;stroke-width:0.5737;stroke-linecap:round;stroke-miterlimit:10;" d="
				M9.23,21.84c0.72,1.33,0.38,2.9,0.38,2.9s-1.49-0.59-2.21-1.91c-0.72-1.33-0.38-2.9-0.38-2.9S8.51,20.51,9.23,21.84z"/>
			
				<path style="clip-path:url(#SVGID_00000168076516847958179680000017786990261071983543_);fill:none;stroke:#FFE67D;stroke-width:0.5737;stroke-linecap:round;stroke-miterlimit:10;" d="
				M15.48,18.29c-0.25,0.76-0.67,1.54-1.13,2.22c-0.74,1.12-1.84,1.94-2.46,3.15c-0.75,1.46-1.08,3.37-0.25,4.87
				c0.3,0.53,0.73,0.91,1.17,1.32c0.5,0.46,1.01,0.92,1.53,1.35c0.52,0.42,1,0.83,1.3,1.45c0.19,0.4,0.49,0.92,0.39,1.34"/>
			
				<path style="clip-path:url(#SVGID_00000168076516847958179680000017786990261071983543_);fill:none;stroke:#FFE67D;stroke-width:0.5737;stroke-linecap:round;stroke-miterlimit:10;" d="
				M10.61,16.71c-0.08-1.08-0.58-2.11-1.35-2.86c-0.81-0.79-1.99-1.1-2.75-1.94c-0.51-0.57-0.6-1.13-0.55-1.86"/>
		</g>
	</g>
</g>
</svg>
