<svg version="1.1" id="Layer_1" xmlns="http://www.w3.org/2000/svg" xmlns:xlink="http://www.w3.org/1999/xlink" x="0px" y="0px"
	 viewBox="0 0 20.52 47.74" style="enable-background:new 0 0 20.52 47.74;" xml:space="preserve">
<style type="text/css">
	.st1{fill:#FFBBD4;}
	.st2{fill:#FFFFFF;}
	.st15{fill:#FF7BB1;}
	.st16{fill:#F993BC;}
	.st28{fill:#CE6796;}
</style>
<g>
	<path class="st1" d="M11.46,34.36c-0.14,0-0.28-0.03-0.42-0.08c-0.19-0.08-1.91-0.78-2.79-2.43c-0.89-1.65-0.54-3.47-0.5-3.67
		c0.07-0.33,0.28-0.61,0.57-0.77c0.17-0.09,0.35-0.14,0.54-0.14c0.14,0,0.28,0.03,0.42,0.08c0.19,0.08,1.91,0.78,2.79,2.43
		c0.89,1.65,0.54,3.47,0.5,3.67c-0.07,0.33-0.28,0.61-0.57,0.77C11.83,34.32,11.65,34.36,11.46,34.36z"/>
	<path class="st1" d="M10.62,17.99c-0.59,0-1.09-0.46-1.13-1.05c-0.06-0.78-0.43-1.56-1.01-2.14c-0.28-0.27-0.67-0.5-1.08-0.73
		c-0.56-0.32-1.19-0.68-1.71-1.25c-0.84-0.93-0.89-1.89-0.84-2.7c0.04-0.63,0.59-1.1,1.21-1.05c0.63,0.04,1.1,0.59,1.05,1.21
		c-0.04,0.59,0.04,0.78,0.26,1.02c0.28,0.31,0.7,0.55,1.15,0.8c0.5,0.28,1.06,0.61,1.55,1.08c0.98,0.96,1.59,2.27,1.69,3.59
		c0.05,0.63-0.43,1.17-1.05,1.22C10.67,17.99,10.65,17.99,10.62,17.99z"/>
	<path class="st15" d="M16.59,37.38c-0.03-0.17-0.06-0.36-0.08-0.53c0,0,0,0,0,0c0,0,0,0,0,0c-1.22-8.56-1.21-17.24,0.02-25.79
		c0,0,0,0,0,0c0.04-0.28,0.08-0.55,0.13-0.82c0.7-0.31,1.19-1,1.19-1.82V6.67c0-1.1-0.9-2-2-2h-1.86c-0.13-0.98-0.96-1.73-1.97-1.73
		H8.63c-1.01,0-1.84,0.76-1.97,1.73H4.8c-1.1,0-2,0.9-2,2v1.74c0,0.82,0.49,1.51,1.2,1.82c0.04,0.27,0.09,0.55,0.13,0.82
		c0,0,0,0,0,0c0,0,0,0,0,0c1.26,8.52,1.27,17.2,0.01,25.78c0,0,0,0,0,0c0,0,0,0,0,0c-0.03,0.18-0.06,0.36-0.09,0.54
		c-0.73,0.3-1.25,0.99-1.25,1.83v1.74c0,1.1,0.9,2,2,2h1.86c0.13,0.98,0.96,1.73,1.97,1.73l3.38,0c1.01,0,1.84-0.75,1.97-1.73h1.86
		c1.1,0,2-0.9,2-2V39.2C17.84,38.37,17.32,37.67,16.59,37.38z"/>
	<g>
		<g>
			<g>
				<path class="st16" d="M15.94,7.55c-0.2,1.11-0.38,2.23-0.54,3.34l-10.15,0C5.09,9.78,4.9,8.66,4.69,7.55L15.94,7.55z"/>
				<path class="st2" d="M15.39,37L5.26,37c1.27-8.72,1.27-17.43-0.01-26.11l10.15,0C14.15,19.59,14.15,28.3,15.39,37z"/>
				<path class="st16" d="M15.94,40.47l-11.25,0c0.21-1.16,0.4-2.31,0.57-3.47l10.13,0C15.55,38.16,15.74,39.32,15.94,40.47z"/>
				<rect x="7.77" y="4.08" class="st2" width="5.11" height="3.46"/>
				<rect x="3.94" y="5.81" class="st28" width="12.77" height="3.46"/>
				<rect x="7.77" y="40.07" class="st2" width="5.11" height="3.46"/>
				<rect x="3.94" y="38.34" class="st28" width="12.77" height="3.46"/>
			</g>
		</g>
		<g>
			<defs>
				<path id="SVGID_00000129176901749152185430000001470488566231765894_" d="M15.39,37L5.26,37c1.27-8.72,1.27-17.43-0.01-26.11
					l10.15,0C14.15,19.59,14.15,28.3,15.39,37z"/>
			</defs>
			<clipPath id="SVGID_00000127731826050579690450000001298953919144394409_">
				<use xlink:href="#SVGID_00000129176901749152185430000001470488566231765894_"  style="overflow:visible;"/>
			</clipPath>
			
				<path style="clip-path:url(#SVGID_00000127731826050579690450000001298953919144394409_);fill:none;stroke:#FFE67D;stroke-width:0.5737;stroke-linecap:round;stroke-miterlimit:10;" d="
				M15.42,10.78c-1.11,1.2-2.22,2.4-3.33,3.59c-0.43,0.46-0.86,0.93-1.16,1.49s-0.45,1.22-0.27,1.83c0.18,0.61,0.74,1.12,1.37,1.12
				c0.34,0,0.67-0.15,0.9-0.39c0.23-0.25,0.35-0.59,0.32-0.92c-0.02-0.25-0.12-0.49-0.3-0.66c-0.18-0.17-0.45-0.25-0.69-0.17
				c-0.24,0.07-0.42,0.31-0.41,0.56c0.01,0.21,0.29,0.57,0.52,0.4"/>
			
				<path style="clip-path:url(#SVGID_00000127731826050579690450000001298953919144394409_);fill:none;stroke:#FFE67D;stroke-width:0.5737;stroke-linecap:round;stroke-miterlimit:10;" d="
				M9.76,15.02c-0.68,0.37-1.26,0.93-1.65,1.61c-0.81,1.4-0.83,3.25-1.96,4.41c-0.32,0.33-0.79,0.59-1.23,0.47"/>
			
				<path style="clip-path:url(#SVGID_00000127731826050579690450000001298953919144394409_);fill:none;stroke:#FFE67D;stroke-width:0.5737;stroke-linecap:round;stroke-miterlimit:10;" d="
				M15.65,37.34c-0.56-0.41-0.93-1.42-1.37-1.98c-0.61-0.78-1.42-1.37-2.37-1.69c-1.05-0.36-2.31-0.43-3.26-1.02
				C7.59,31.98,7.29,30.69,7,29.54c-0.06-0.25-0.56-2.62-1.27-1.9"/>
			
				<path style="clip-path:url(#SVGID_00000127731826050579690450000001298953919144394409_);fill:none;stroke:#FFE67D;stroke-width:0.5737;stroke-linecap:round;stroke-miterlimit:10;" d="
				M11.08,30.33c0.72,1.33,0.38,2.9,0.38,2.9s-1.49-0.59-2.21-1.91c-0.72-1.33-0.38-2.9-0.38-2.9S10.36,29,11.08,30.33z"/>
			
				<path style="clip-path:url(#SVGID_00000127731826050579690450000001298953919144394409_);fill:none;stroke:#FFE67D;stroke-width:0.5737;stroke-linecap:round;stroke-miterlimit:10;" d="
				M9.24,21.98c0.72,1.33,0.38,2.9,0.38,2.9s-1.49-0.59-2.21-1.91c-0.72-1.33-0.38-2.9-0.38-2.9S8.52,20.65,9.24,21.98z"/>
			
				<path style="clip-path:url(#SVGID_00000127731826050579690450000001298953919144394409_);fill:none;stroke:#FFE67D;stroke-width:0.5737;stroke-linecap:round;stroke-miterlimit:10;" d="
				M15.49,18.43c-0.25,0.76-0.67,1.54-1.13,2.22c-0.74,1.12-1.84,1.94-2.46,3.15c-0.75,1.46-1.08,3.37-0.25,4.87
				c0.3,0.53,0.73,0.91,1.17,1.32c0.5,0.46,1.01,0.92,1.53,1.35c0.52,0.42,1,0.83,1.3,1.45c0.19,0.4,0.49,0.92,0.39,1.34"/>
			
				<path style="clip-path:url(#SVGID_00000127731826050579690450000001298953919144394409_);fill:none;stroke:#FFE67D;stroke-width:0.5737;stroke-linecap:round;stroke-miterlimit:10;" d="
				M10.62,16.85c-0.08-1.08-0.58-2.11-1.35-2.86c-0.81-0.79-1.99-1.1-2.75-1.94c-0.51-0.57-0.6-1.13-0.55-1.86"/>
		</g>
	</g>
</g>
</svg>
