<?xml version="1.0" encoding="utf-8"?>
<!-- Generator: Adobe Illustrator 26.4.1, SVG Export Plug-In . SVG Version: 6.00 Build 0)  -->
<svg version="1.1" id="Layer_1" xmlns="http://www.w3.org/2000/svg" xmlns:xlink="http://www.w3.org/1999/xlink" x="0px" y="0px"
	 viewBox="0 0 20.52 47.74" style="enable-background:new 0 0 20.52 47.74;" xml:space="preserve">
<style type="text/css">
	.st0{opacity:0.9;}
	.st1{fill:#FFBBD4;}
	.st2{fill:#FFFFFF;}
	.st3{fill:#F77FBC;}
	.st4{fill:#E797DA;}
	.st5{fill:#D4ACF8;}
	.st6{fill:#FCD7FF;}
	.st7{fill:#D86198;}
	.st8{fill:#FF7DBE;}
	.st9{fill:#FF8DC6;}
	.st10{fill:#A2F7F9;}
	.st11{fill:#CADAFF;stroke:#CADAFF;stroke-width:1.7383;stroke-miterlimit:10;}
	.st12{fill:#E6F0FF;}
	.st13{fill:#FF8FB7;}
	.st14{fill:none;stroke:#FFE67D;stroke-width:0.585;stroke-linecap:round;stroke-miterlimit:10;}
	.st15{fill:#FF7BB1;}
	.st16{fill:#F993BC;}
	.st17{fill:#FFE67D;}
	.st18{fill:none;stroke:#000000;stroke-width:0.4557;stroke-miterlimit:10;}
	
		.st19{clip-path:url(#SVGID_00000043449003394577296390000006453060615464691587_);fill:none;stroke:#FFE67D;stroke-width:0.5737;stroke-linecap:round;stroke-miterlimit:10;}
	.st20{fill:#FF9CE3;}
	.st21{fill:#BC6CB5;}
	
		.st22{clip-path:url(#SVGID_00000003815763471483739640000015875539933191595955_);fill:none;stroke:#FFE67D;stroke-width:0.5737;stroke-linecap:round;stroke-miterlimit:10;}
	.st23{fill:#DFC5F9;}
	.st24{fill:#A780D1;}
	
		.st25{clip-path:url(#SVGID_00000062887679317056479970000003814844753217958044_);fill:none;stroke:#FFE67D;stroke-width:0.5737;stroke-linecap:round;stroke-miterlimit:10;}
	.st26{fill:#CAA5CE;}
	
		.st27{clip-path:url(#SVGID_00000116929384787564008040000004705869931432613773_);fill:none;stroke:#FFE67D;stroke-width:0.5737;stroke-linecap:round;stroke-miterlimit:10;}
	.st28{fill:#CE6796;}
	
		.st29{clip-path:url(#SVGID_00000123429284554413925380000004504630048384528303_);fill:none;stroke:#FFE67D;stroke-width:0.5737;stroke-linecap:round;stroke-miterlimit:10;}
	.st30{fill:#6EA9FF;}
	.st31{fill:#3A83DB;}
	
		.st32{clip-path:url(#SVGID_00000090253724813025627850000006292277792452725416_);fill:none;stroke:#FFE67D;stroke-width:0.5737;stroke-linecap:round;stroke-miterlimit:10;}
	
		.st33{clip-path:url(#SVGID_00000159452183159387608610000013883946775716756897_);fill:none;stroke:#FFE67D;stroke-width:0.5737;stroke-linecap:round;stroke-miterlimit:10;}
	.st34{fill:none;stroke:#E9BACF;stroke-miterlimit:10;}
	.st35{fill:#D7FEFF;}
	
		.st36{clip-path:url(#SVGID_00000100345519505521212890000000455139440873565118_);fill:none;stroke:#FFE67D;stroke-width:0.5737;stroke-linecap:round;stroke-miterlimit:10;}
	
		.st37{clip-path:url(#SVGID_00000003824348035556388980000014018666760263931562_);fill:none;stroke:#FFE67D;stroke-width:0.5737;stroke-linecap:round;stroke-miterlimit:10;}
	
		.st38{clip-path:url(#SVGID_00000054980569716630866690000003389342599189880448_);fill:none;stroke:#FFE67D;stroke-width:0.5737;stroke-linecap:round;stroke-miterlimit:10;}
	
		.st39{clip-path:url(#SVGID_00000181066286725753902780000002443863146987517608_);fill:none;stroke:#FFE67D;stroke-width:0.5737;stroke-linecap:round;stroke-miterlimit:10;}
	
		.st40{clip-path:url(#SVGID_00000060017986415969545910000002813403287077396864_);fill:none;stroke:#FFE67D;stroke-width:0.5737;stroke-linecap:round;stroke-miterlimit:10;}
	
		.st41{clip-path:url(#SVGID_00000075855419270260932710000013289541940919003793_);fill:none;stroke:#FFE67D;stroke-width:0.5737;stroke-linecap:round;stroke-miterlimit:10;}
	
		.st42{clip-path:url(#SVGID_00000143576782734201318350000003663342144238630529_);fill:none;stroke:#FFE67D;stroke-width:0.5737;stroke-linecap:round;stroke-miterlimit:10;}
	
		.st43{clip-path:url(#SVGID_00000067938117856326743390000011991711439677453206_);fill:none;stroke:#FFE67D;stroke-width:0.5737;stroke-linecap:round;stroke-miterlimit:10;}
	
		.st44{clip-path:url(#SVGID_00000139983699696039395510000004356767309242161332_);fill:none;stroke:#FFE67D;stroke-width:0.5737;stroke-linecap:round;stroke-miterlimit:10;}
	.st45{opacity:0.85;}
	.st46{fill:#E698DC;}
	.st47{fill:none;}
	.st48{fill:#FFC4D9;}
	.st49{opacity:0.93;}
	
		.st50{clip-path:url(#SVGID_00000178187116320740911890000016016991821994158736_);fill:none;stroke:#FFE67D;stroke-width:0.5737;stroke-linecap:round;stroke-miterlimit:10;}
	
		.st51{clip-path:url(#SVGID_00000038401049460129602050000005981478299713041592_);fill:none;stroke:#FFE67D;stroke-width:0.5737;stroke-linecap:round;stroke-miterlimit:10;}
	.st52{fill:none;stroke:#FFE67D;stroke-width:0.6098;stroke-linecap:round;stroke-miterlimit:10;}
	
		.st53{clip-path:url(#SVGID_00000090990858987718884530000010092801876396380856_);fill:none;stroke:#FFE67D;stroke-width:0.5737;stroke-linecap:round;stroke-miterlimit:10;}
	
		.st54{clip-path:url(#SVGID_00000143613091963596546220000008202323119683868047_);fill:none;stroke:#FFE67D;stroke-width:0.5737;stroke-linecap:round;stroke-miterlimit:10;}
	.st55{fill:#FF7B7B;}
	.st56{fill:#DD75A5;}
	.st57{fill:none;stroke:#FFE67D;stroke-width:0.7329;stroke-linecap:round;stroke-miterlimit:10;}
	
		.st58{clip-path:url(#SVGID_00000179634889074610347170000011034302021576929183_);fill:none;stroke:#FFE67D;stroke-width:0.5737;stroke-linecap:round;stroke-miterlimit:10;}
	
		.st59{clip-path:url(#SVGID_00000099625884663068712280000012689158379120027566_);fill:none;stroke:#FFE67D;stroke-width:0.5737;stroke-linecap:round;stroke-miterlimit:10;}
	
		.st60{clip-path:url(#SVGID_00000162347430040238826390000011758476107781566891_);fill:none;stroke:#FFE67D;stroke-width:0.5737;stroke-linecap:round;stroke-miterlimit:10;}
	
		.st61{clip-path:url(#SVGID_00000169529383608793477400000015361792109904846502_);fill:none;stroke:#FFE67D;stroke-width:0.5737;stroke-linecap:round;stroke-miterlimit:10;}
	.st62{opacity:0.89;}
	.st63{fill:#CADAFF;}
	.st64{fill:#D1DFFF;}
	.st65{fill:none;stroke:#FFE67D;stroke-width:0.5557;stroke-linecap:round;stroke-miterlimit:10;}
	
		.st66{clip-path:url(#SVGID_00000000194843612068120550000010817321525380248484_);fill:none;stroke:#FFE67D;stroke-width:0.5737;stroke-linecap:round;stroke-miterlimit:10;}
	
		.st67{clip-path:url(#SVGID_00000003066008158798384250000011831412453110078346_);fill:none;stroke:#FFE67D;stroke-width:0.5737;stroke-linecap:round;stroke-miterlimit:10;}
	.st68{opacity:0.84;}
	.st69{fill:#FCDCFF;}
	.st70{fill:none;stroke:#FFE67D;stroke-width:0.4588;stroke-linecap:round;stroke-miterlimit:10;}
	
		.st71{clip-path:url(#SVGID_00000165931195834552111880000007367649693211842739_);fill:none;stroke:#FFE67D;stroke-width:0.5737;stroke-linecap:round;stroke-miterlimit:10;}
	
		.st72{clip-path:url(#SVGID_00000049222322358788218280000009883957003282524058_);fill:none;stroke:#FFE67D;stroke-width:0.5737;stroke-linecap:round;stroke-miterlimit:10;}
	
		.st73{clip-path:url(#SVGID_00000000202210068185409280000016215248650379098786_);fill:none;stroke:#FFE67D;stroke-width:0.5737;stroke-linecap:round;stroke-miterlimit:10;}
	
		.st74{clip-path:url(#SVGID_00000128473606025799968770000015889869813703563151_);fill:none;stroke:#FFE67D;stroke-width:0.5737;stroke-linecap:round;stroke-miterlimit:10;}
	
		.st75{clip-path:url(#SVGID_00000148645552012258928350000011988924796452414082_);fill:none;stroke:#FFE67D;stroke-width:0.5737;stroke-linecap:round;stroke-miterlimit:10;}
	
		.st76{clip-path:url(#SVGID_00000055699771388085071210000013836206324004276398_);fill:none;stroke:#FFE67D;stroke-width:0.5737;stroke-linecap:round;stroke-miterlimit:10;}
	.st77{fill:#F792FF;}
	
		.st78{clip-path:url(#SVGID_00000093169430905176545380000004402872295744671883_);fill:none;stroke:#FFE67D;stroke-width:0.5737;stroke-linecap:round;stroke-miterlimit:10;}
	
		.st79{clip-path:url(#SVGID_00000141436933934912960440000000812100266391822263_);fill:none;stroke:#FFE67D;stroke-width:0.5737;stroke-linecap:round;stroke-miterlimit:10;}
	.st80{fill:#F87DBA;}
</style>
<g>
	<path class="st1" d="M5.26,37.9c-0.33,0-0.64-0.14-0.86-0.39s-0.31-0.58-0.27-0.91c1.25-8.58,1.25-17.26-0.01-25.78
		c-0.05-0.33,0.05-0.66,0.26-0.91C4.6,9.66,4.91,9.51,5.25,9.51l10.15,0c0.33,0,0.64,0.14,0.86,0.39c0.22,0.25,0.31,0.58,0.27,0.91
		c-1.23,8.56-1.23,17.23-0.02,25.79c0.05,0.33-0.05,0.66-0.27,0.91c-0.22,0.25-0.53,0.39-0.86,0.39L5.26,37.9z"/>
	<path class="st1" d="M12.02,19.71c-1.1,0-2.13-0.81-2.46-1.94c-0.24-0.84-0.12-1.79,0.36-2.68c0.37-0.69,0.88-1.24,1.33-1.73
		l3.33-3.59c0.43-0.46,1.15-0.49,1.61-0.06c0.46,0.43,0.49,1.15,0.06,1.61l-3.33,3.59c-0.11,0.12-0.22,0.24-0.33,0.36
		c0.41,0.03,0.8,0.21,1.12,0.49c0.39,0.36,0.62,0.86,0.67,1.41c0.05,0.65-0.18,1.3-0.62,1.78C13.31,19.43,12.68,19.7,12.02,19.71
		C12.03,19.71,12.02,19.71,12.02,19.71z"/>
	<path class="st1" d="M16.56,37.77c-0.22,0.3-0.57,0.46-0.92,0.46c-0.23,0-0.47-0.07-0.67-0.22c-0.55-0.4-0.9-1.02-1.21-1.57
		c-0.13-0.24-0.27-0.48-0.39-0.63c-0.47-0.61-1.1-1.06-1.84-1.31c-0.32-0.11-0.69-0.19-1.08-0.28c-0.77-0.17-1.64-0.37-2.41-0.84
		c-1.43-0.89-1.82-2.45-2.13-3.7l-0.05-0.19c-0.11-0.45-0.2-0.76-0.28-0.96c-0.24-0.03-0.47-0.13-0.66-0.32"/>
	<path class="st1" d="M11.46,34.12c-0.14,0-0.28-0.03-0.42-0.08c-0.19-0.08-1.91-0.78-2.79-2.43s-0.54-3.47-0.5-3.67
		c0.07-0.33,0.28-0.61,0.57-0.77c0.17-0.09,0.35-0.14,0.54-0.14c0.14,0,0.28,0.03,0.42,0.08c0.19,0.08,1.91,0.78,2.79,2.43
		c0.89,1.65,0.54,3.47,0.5,3.67c-0.07,0.33-0.28,0.61-0.57,0.77C11.83,34.08,11.64,34.12,11.46,34.12z"/>
	<path class="st1" d="M10.61,17.75c-0.59,0-1.09-0.46-1.13-1.05c-0.06-0.78-0.43-1.56-1.01-2.14c-0.28-0.27-0.67-0.5-1.08-0.73
		c-0.56-0.32-1.19-0.68-1.71-1.25c-0.84-0.93-0.89-1.89-0.84-2.7c0.04-0.63,0.59-1.1,1.21-1.05c0.63,0.04,1.1,0.59,1.05,1.21
		c-0.04,0.59,0.04,0.78,0.26,1.02c0.28,0.31,0.7,0.55,1.15,0.8c0.5,0.28,1.06,0.61,1.55,1.08c0.98,0.96,1.59,2.27,1.69,3.59
		c0.05,0.63-0.43,1.17-1.05,1.22C10.67,17.75,10.64,17.75,10.61,17.75z"/>
	<path class="st31" d="M16.52,10.81c0.04-0.28,0.08-0.55,0.13-0.82c0.7-0.31,1.19-1,1.19-1.82V6.43c0-1.1-0.9-2-2-2h-1.86
		c-0.13-0.98-0.96-1.73-1.97-1.73H8.63c-1.01,0-1.84,0.76-1.97,1.73H4.8c-1.1,0-2,0.9-2,2v1.74c0,0.82,0.49,1.51,1.2,1.82
		c0.04,0.27,0.09,0.55,0.13,0.82c0,0,0,0,0,0c0,0,0,0,0,0c1.26,8.52,1.26,17.2,0.01,25.78c0,0,0,0,0,0c0,0,0,0,0,0
		c-0.03,0.18-0.06,0.36-0.09,0.54c-0.73,0.3-1.25,0.99-1.25,1.83v1.74c0,1.1,0.9,2,2,2h1.86c0.13,0.98,0.96,1.73,1.97,1.73h3.38
		c1.01,0,1.84-0.75,1.97-1.73h1.86c1.1,0,2-0.9,2-2v-1.74c0-0.84-0.52-1.53-1.25-1.83c-0.03-0.17-0.06-0.36-0.08-0.53c0,0,0,0,0,0
		c0,0,0,0,0,0C15.29,28.05,15.3,19.37,16.52,10.81C16.52,10.81,16.52,10.81,16.52,10.81z"/>
	<g>
		<g>
			<g>
				<path class="st16" d="M15.94,7.3c-0.2,1.11-0.38,2.23-0.54,3.34l-10.15,0C5.08,9.54,4.9,8.42,4.69,7.3L15.94,7.3z"/>
				<path class="st2" d="M15.38,36.76l-10.13,0c1.27-8.72,1.27-17.43-0.01-26.11l10.15,0C14.15,19.35,14.14,28.06,15.38,36.76z"/>
				<path class="st16" d="M15.94,40.23l-11.25,0c0.21-1.16,0.4-2.31,0.57-3.47l10.13,0C15.54,37.92,15.73,39.08,15.94,40.23z"/>
				<rect x="7.76" y="3.84" class="st2" width="5.11" height="3.46"/>
				<rect x="3.93" y="5.57" class="st30" width="12.77" height="3.46"/>
				<rect x="7.76" y="39.83" class="st2" width="5.11" height="3.46"/>
				<rect x="3.93" y="38.1" class="st30" width="12.77" height="3.46"/>
			</g>
		</g>
		<g>
			<defs>
				<path id="SVGID_00000013874952667733250800000011791689048694261121_" d="M15.38,36.76l-10.13,0
					c1.27-8.72,1.27-17.43-0.01-26.11l10.15,0C14.15,19.35,14.14,28.06,15.38,36.76z"/>
			</defs>
			<clipPath id="SVGID_00000063609306896691758220000005248577529607053750_">
				<use xlink:href="#SVGID_00000013874952667733250800000011791689048694261121_"  style="overflow:visible;"/>
			</clipPath>
			
				<path style="clip-path:url(#SVGID_00000063609306896691758220000005248577529607053750_);fill:none;stroke:#FFE67D;stroke-width:0.5737;stroke-linecap:round;stroke-miterlimit:10;" d="
				M15.42,10.54c-1.11,1.2-2.22,2.4-3.33,3.59c-0.43,0.46-0.86,0.93-1.16,1.49c-0.3,0.56-0.45,1.22-0.27,1.83
				c0.18,0.61,0.74,1.12,1.37,1.12c0.34,0,0.67-0.15,0.9-0.39c0.23-0.25,0.35-0.59,0.32-0.92c-0.02-0.25-0.12-0.49-0.3-0.66
				c-0.18-0.17-0.45-0.25-0.69-0.17c-0.24,0.07-0.42,0.31-0.41,0.56c0.01,0.21,0.29,0.57,0.52,0.4"/>
			
				<path style="clip-path:url(#SVGID_00000063609306896691758220000005248577529607053750_);fill:none;stroke:#FFE67D;stroke-width:0.5737;stroke-linecap:round;stroke-miterlimit:10;" d="
				M9.76,14.78c-0.68,0.37-1.26,0.93-1.65,1.61c-0.81,1.4-0.83,3.25-1.96,4.41c-0.32,0.33-0.79,0.59-1.23,0.47"/>
			
				<path style="clip-path:url(#SVGID_00000063609306896691758220000005248577529607053750_);fill:none;stroke:#FFE67D;stroke-width:0.5737;stroke-linecap:round;stroke-miterlimit:10;" d="
				M15.65,37.09c-0.56-0.41-0.93-1.42-1.37-1.98c-0.61-0.78-1.42-1.37-2.37-1.69C10.86,33.06,9.6,33,8.65,32.41
				C7.58,31.74,7.29,30.45,7,29.29c-0.06-0.25-0.56-2.62-1.27-1.9"/>
			
				<path style="clip-path:url(#SVGID_00000063609306896691758220000005248577529607053750_);fill:none;stroke:#FFE67D;stroke-width:0.5737;stroke-linecap:round;stroke-miterlimit:10;" d="
				M11.07,30.09c0.72,1.33,0.38,2.9,0.38,2.9s-1.49-0.59-2.21-1.91c-0.72-1.33-0.38-2.9-0.38-2.9S10.36,28.76,11.07,30.09z"/>
			
				<path style="clip-path:url(#SVGID_00000063609306896691758220000005248577529607053750_);fill:none;stroke:#FFE67D;stroke-width:0.5737;stroke-linecap:round;stroke-miterlimit:10;" d="
				M9.24,21.74c0.72,1.33,0.38,2.9,0.38,2.9s-1.49-0.59-2.21-1.91c-0.72-1.33-0.38-2.9-0.38-2.9S8.52,20.41,9.24,21.74z"/>
			
				<path style="clip-path:url(#SVGID_00000063609306896691758220000005248577529607053750_);fill:none;stroke:#FFE67D;stroke-width:0.5737;stroke-linecap:round;stroke-miterlimit:10;" d="
				M15.48,18.19c-0.25,0.76-0.67,1.54-1.13,2.22c-0.74,1.12-1.84,1.94-2.46,3.15c-0.75,1.46-1.08,3.37-0.25,4.87
				c0.3,0.53,0.73,0.91,1.17,1.32c0.5,0.46,1.01,0.92,1.53,1.35c0.52,0.42,1,0.83,1.3,1.45c0.19,0.4,0.49,0.92,0.39,1.34"/>
			
				<path style="clip-path:url(#SVGID_00000063609306896691758220000005248577529607053750_);fill:none;stroke:#FFE67D;stroke-width:0.5737;stroke-linecap:round;stroke-miterlimit:10;" d="
				M10.61,16.61c-0.08-1.08-0.58-2.11-1.35-2.86c-0.81-0.79-1.99-1.1-2.75-1.94C6,11.24,5.92,10.68,5.97,9.95"/>
		</g>
	</g>
</g>
</svg>
