<svg version="1.1" id="Layer_1" xmlns="http://www.w3.org/2000/svg" xmlns:xlink="http://www.w3.org/1999/xlink" x="0px" y="0px"
	 viewBox="0 0 20.52 47.74" style="enable-background:new 0 0 20.52 47.74;" xml:space="preserve">
<style type="text/css">
	.st1{fill:#FFBBD4;}
	.st2{fill:#FFFFFF;}
	.st17{fill:#F993BC;}
	.st18{fill:#FFE67D;}
	.st86{fill:#875CBF;}
</style>
<g>
	<path class="st1" d="M11.4,34.43c-0.14,0-0.28-0.03-0.42-0.08c-0.19-0.08-1.91-0.78-2.79-2.43s-0.54-3.47-0.5-3.67
		c0.07-0.33,0.28-0.61,0.57-0.77c0.17-0.09,0.35-0.14,0.54-0.14c0.14,0,0.28,0.03,0.42,0.08c0.19,0.08,1.91,0.78,2.79,2.43
		c0.89,1.65,0.54,3.47,0.5,3.67c-0.07,0.33-0.28,0.61-0.57,0.77C11.77,34.38,11.58,34.43,11.4,34.43z"/>
	<path class="st86" d="M16.46,11.12c0.04-0.28,0.08-0.55,0.13-0.82c0.7-0.31,1.19-1,1.19-1.82V6.74c0-1.1-0.9-2-2-2h-1.86
		c-0.13-0.98-0.96-1.73-1.97-1.73H8.57c-1.01,0-1.84,0.76-1.97,1.73H4.74c-1.1,0-2,0.9-2,2v1.74c0,0.82,0.49,1.51,1.2,1.82
		c0.04,0.27,0.09,0.55,0.13,0.82c0,0,0,0,0,0c0,0,0,0,0,0c1.26,8.52,1.26,17.2,0.01,25.78c0,0,0,0,0,0c0,0,0,0,0,0
		c-0.03,0.18-0.06,0.36-0.09,0.54c-0.73,0.3-1.25,0.99-1.25,1.83V41c0,1.1,0.9,2,2,2h1.86c0.13,0.98,0.96,1.73,1.97,1.73h3.38
		c1.01,0,1.84-0.75,1.97-1.73h1.86c1.1,0,2-0.9,2-2v-1.74c0-0.84-0.52-1.53-1.25-1.83c-0.03-0.17-0.06-0.36-0.08-0.53c0,0,0,0,0,0
		c0,0,0,0,0,0C15.23,28.35,15.24,19.67,16.46,11.12C16.46,11.12,16.46,11.12,16.46,11.12z"/>
	<g>
		<g>
			<g>
				<path class="st17" d="M15.88,7.61c-0.2,1.11-0.38,2.23-0.54,3.34l-10.15,0C5.02,9.84,4.84,8.72,4.63,7.61L15.88,7.61z"/>
				<path class="st2" d="M15.32,37.07l-10.13,0c1.27-8.72,1.27-17.43-0.01-26.11l10.15,0C14.09,19.66,14.08,28.36,15.32,37.07z"/>
				<path class="st17" d="M15.88,40.54l-11.25,0c0.21-1.16,0.4-2.31,0.57-3.47l10.13,0C15.48,38.23,15.67,39.38,15.88,40.54z"/>
				<rect x="7.7" y="4.14" class="st2" width="5.11" height="3.46"/>
				<rect x="3.87" y="5.87" class="st18" width="12.77" height="3.46"/>
				<rect x="7.7" y="40.14" class="st2" width="5.11" height="3.46"/>
				<rect x="3.87" y="38.4" class="st18" width="12.77" height="3.46"/>
			</g>
		</g>
		<g>
			<defs>
				<path id="SVGID_00000055701164246048532000000015368230188723855249_" d="M15.32,37.07l-10.13,0
					c1.27-8.72,1.27-17.43-0.01-26.11l10.15,0C14.09,19.66,14.08,28.36,15.32,37.07z"/>
			</defs>
			<clipPath id="SVGID_00000173136453345095632090000013639428668179445663_">
				<use xlink:href="#SVGID_00000055701164246048532000000015368230188723855249_"  style="overflow:visible;"/>
			</clipPath>
			
				<path style="clip-path:url(#SVGID_00000173136453345095632090000013639428668179445663_);fill:none;stroke:#FFE67D;stroke-width:0.5737;stroke-linecap:round;stroke-miterlimit:10;" d="
				M15.36,10.84c-1.11,1.2-2.22,2.4-3.33,3.59c-0.43,0.46-0.86,0.93-1.16,1.49s-0.45,1.22-0.27,1.83s0.74,1.12,1.37,1.12
				c0.34,0,0.67-0.15,0.9-0.39c0.23-0.25,0.35-0.59,0.32-0.92c-0.02-0.25-0.12-0.49-0.3-0.66c-0.18-0.17-0.45-0.25-0.69-0.17
				c-0.24,0.07-0.42,0.31-0.41,0.56c0.01,0.21,0.29,0.57,0.52,0.4"/>
			
				<path style="clip-path:url(#SVGID_00000173136453345095632090000013639428668179445663_);fill:none;stroke:#FFE67D;stroke-width:0.5737;stroke-linecap:round;stroke-miterlimit:10;" d="
				M9.7,15.08c-0.68,0.37-1.26,0.93-1.65,1.61c-0.81,1.4-0.83,3.25-1.96,4.41c-0.32,0.33-0.79,0.59-1.23,0.47"/>
			
				<path style="clip-path:url(#SVGID_00000173136453345095632090000013639428668179445663_);fill:none;stroke:#FFE67D;stroke-width:0.5737;stroke-linecap:round;stroke-miterlimit:10;" d="
				M15.59,37.4c-0.56-0.41-0.93-1.42-1.37-1.98c-0.61-0.78-1.42-1.37-2.37-1.69c-1.05-0.36-2.31-0.43-3.26-1.02
				c-1.07-0.66-1.37-1.96-1.66-3.11c-0.06-0.25-0.56-2.62-1.27-1.9"/>
			
				<path style="clip-path:url(#SVGID_00000173136453345095632090000013639428668179445663_);fill:none;stroke:#FFE67D;stroke-width:0.5737;stroke-linecap:round;stroke-miterlimit:10;" d="
				M11.01,30.39c0.72,1.33,0.38,2.9,0.38,2.9s-1.49-0.59-2.21-1.91c-0.72-1.33-0.38-2.9-0.38-2.9S10.3,29.07,11.01,30.39z"/>
			
				<path style="clip-path:url(#SVGID_00000173136453345095632090000013639428668179445663_);fill:none;stroke:#FFE67D;stroke-width:0.5737;stroke-linecap:round;stroke-miterlimit:10;" d="
				M9.18,22.04c0.72,1.33,0.38,2.9,0.38,2.9s-1.49-0.59-2.21-1.91c-0.72-1.33-0.38-2.9-0.38-2.9S8.46,20.71,9.18,22.04z"/>
			
				<path style="clip-path:url(#SVGID_00000173136453345095632090000013639428668179445663_);fill:none;stroke:#FFE67D;stroke-width:0.5737;stroke-linecap:round;stroke-miterlimit:10;" d="
				M15.42,18.49c-0.25,0.76-0.67,1.54-1.13,2.22c-0.74,1.12-1.84,1.94-2.46,3.15c-0.75,1.46-1.08,3.37-0.25,4.87
				c0.3,0.53,0.73,0.91,1.17,1.32c0.5,0.46,1.01,0.92,1.53,1.35c0.52,0.42,1,0.83,1.3,1.45c0.19,0.4,0.49,0.92,0.39,1.34"/>
			
				<path style="clip-path:url(#SVGID_00000173136453345095632090000013639428668179445663_);fill:none;stroke:#FFE67D;stroke-width:0.5737;stroke-linecap:round;stroke-miterlimit:10;" d="
				M10.55,16.91c-0.08-1.08-0.58-2.11-1.35-2.86c-0.81-0.79-1.99-1.1-2.75-1.94c-0.51-0.57-0.6-1.13-0.55-1.86"/>
		</g>
	</g>
</g>
</svg>
