<?xml version="1.0" encoding="utf-8"?>
<!-- Generator: Adobe Illustrator 26.4.1, SVG Export Plug-In . SVG Version: 6.00 Build 0)  -->
<svg version="1.1" id="Layer_1" xmlns="http://www.w3.org/2000/svg" xmlns:xlink="http://www.w3.org/1999/xlink" x="0px" y="0px"
	 viewBox="0 0 20.52 47.74" style="enable-background:new 0 0 20.52 47.74;" xml:space="preserve">
<style type="text/css">
	.st0{opacity:0.9;}
	.st1{fill:#FFBBD4;}
	.st2{fill:#FFFFFF;}
	.st3{fill:#F77FBC;}
	.st4{fill:#E797DA;}
	.st5{fill:#D4ACF8;}
	.st6{fill:#FCD7FF;}
	.st7{fill:#D86198;}
	.st8{fill:#FF7DBE;}
	.st9{fill:#FF8DC6;}
	.st10{fill:#A2F7F9;}
	.st11{fill:#CADAFF;stroke:#CADAFF;stroke-width:1.7383;stroke-miterlimit:10;}
	.st12{fill:#E6F0FF;}
	.st13{fill:#AD7AE2;}
	.st14{fill:#FF8FB7;}
	.st15{fill:none;stroke:#FFE67D;stroke-width:0.585;stroke-linecap:round;stroke-miterlimit:10;}
	.st16{fill:#FF7BB1;}
	.st17{fill:#F993BC;}
	.st18{fill:#FFE67D;}
	.st19{fill:none;stroke:#000000;stroke-width:0.4557;stroke-miterlimit:10;}
	
		.st20{clip-path:url(#SVGID_00000042013575541000008250000017252961990680741013_);fill:none;stroke:#FFE67D;stroke-width:0.5737;stroke-linecap:round;stroke-miterlimit:10;}
	.st21{fill:#FF9CE3;}
	.st22{fill:#BC6CB5;}
	
		.st23{clip-path:url(#SVGID_00000162345923887167381650000010324913035690928828_);fill:none;stroke:#FFE67D;stroke-width:0.5737;stroke-linecap:round;stroke-miterlimit:10;}
	.st24{fill:#DFC5F9;}
	.st25{fill:#A780D1;}
	
		.st26{clip-path:url(#SVGID_00000021815086894350748400000002141122381230911647_);fill:none;stroke:#FFE67D;stroke-width:0.5737;stroke-linecap:round;stroke-miterlimit:10;}
	.st27{fill:#CAA5CE;}
	
		.st28{clip-path:url(#SVGID_00000119109897387036926590000004640508428672538515_);fill:none;stroke:#FFE67D;stroke-width:0.5737;stroke-linecap:round;stroke-miterlimit:10;}
	.st29{fill:#CE6796;}
	
		.st30{clip-path:url(#SVGID_00000057858754061035920980000004956124016012994480_);fill:none;stroke:#FFE67D;stroke-width:0.5737;stroke-linecap:round;stroke-miterlimit:10;}
	.st31{fill:#6EA9FF;}
	.st32{fill:#3A83DB;}
	
		.st33{clip-path:url(#SVGID_00000162324179910140244890000000592078051617281190_);fill:none;stroke:#FFE67D;stroke-width:0.5737;stroke-linecap:round;stroke-miterlimit:10;}
	
		.st34{clip-path:url(#SVGID_00000119112883533432787000000003633364558902160013_);fill:none;stroke:#FFE67D;stroke-width:0.5737;stroke-linecap:round;stroke-miterlimit:10;}
	.st35{fill:none;stroke:#E9BACF;stroke-miterlimit:10;}
	.st36{fill:#D7FEFF;}
	
		.st37{clip-path:url(#SVGID_00000083789547538256675580000007393665770322924983_);fill:none;stroke:#FFE67D;stroke-width:0.5737;stroke-linecap:round;stroke-miterlimit:10;}
	
		.st38{clip-path:url(#SVGID_00000022524744213041517090000008379684009118494871_);fill:none;stroke:#FFE67D;stroke-width:0.5737;stroke-linecap:round;stroke-miterlimit:10;}
	
		.st39{clip-path:url(#SVGID_00000028293595661471478630000005857132164938539447_);fill:none;stroke:#FFE67D;stroke-width:0.5737;stroke-linecap:round;stroke-miterlimit:10;}
	
		.st40{clip-path:url(#SVGID_00000114769364549565976370000015244565576764010904_);fill:none;stroke:#FFE67D;stroke-width:0.5737;stroke-linecap:round;stroke-miterlimit:10;}
	
		.st41{clip-path:url(#SVGID_00000106827164971049566700000001553159978999629730_);fill:none;stroke:#FFE67D;stroke-width:0.5737;stroke-linecap:round;stroke-miterlimit:10;}
	
		.st42{clip-path:url(#SVGID_00000183968176163100819110000004182910626259674783_);fill:none;stroke:#FFE67D;stroke-width:0.5737;stroke-linecap:round;stroke-miterlimit:10;}
	
		.st43{clip-path:url(#SVGID_00000005234778559807380750000003639707504464564891_);fill:none;stroke:#FFE67D;stroke-width:0.5737;stroke-linecap:round;stroke-miterlimit:10;}
	.st44{fill:#B388E5;}
	
		.st45{clip-path:url(#SVGID_00000034058651131841019890000006717407069751584128_);fill:none;stroke:#FFE67D;stroke-width:0.5737;stroke-linecap:round;stroke-miterlimit:10;}
	
		.st46{clip-path:url(#SVGID_00000079487781174984851250000014927570513328253842_);fill:none;stroke:#FFE67D;stroke-width:0.5737;stroke-linecap:round;stroke-miterlimit:10;}
	.st47{opacity:0.85;}
	.st48{fill:#E698DC;}
	.st49{fill:none;}
	.st50{fill:#FFC4D9;}
	.st51{opacity:0.93;}
	
		.st52{clip-path:url(#SVGID_00000178204956719106647370000012340259612189512365_);fill:none;stroke:#FFE67D;stroke-width:0.5737;stroke-linecap:round;stroke-miterlimit:10;}
	
		.st53{clip-path:url(#SVGID_00000086666212982200623540000014864837877403093662_);fill:none;stroke:#FFE67D;stroke-width:0.5737;stroke-linecap:round;stroke-miterlimit:10;}
	.st54{fill:none;stroke:#FFE67D;stroke-width:0.6098;stroke-linecap:round;stroke-miterlimit:10;}
	
		.st55{clip-path:url(#SVGID_00000124125938254242745730000003022901081284826301_);fill:none;stroke:#FFE67D;stroke-width:0.5737;stroke-linecap:round;stroke-miterlimit:10;}
	
		.st56{clip-path:url(#SVGID_00000005267231253322248320000016257922862996034710_);fill:none;stroke:#FFE67D;stroke-width:0.5737;stroke-linecap:round;stroke-miterlimit:10;}
	.st57{fill:#FF7B7B;}
	.st58{fill:#DD75A5;}
	.st59{fill:none;stroke:#FFE67D;stroke-width:0.7329;stroke-linecap:round;stroke-miterlimit:10;}
	
		.st60{clip-path:url(#SVGID_00000148626546170998212860000004130650201618191270_);fill:none;stroke:#FFE67D;stroke-width:0.5737;stroke-linecap:round;stroke-miterlimit:10;}
	
		.st61{clip-path:url(#SVGID_00000042721343999681855200000014783942785624643254_);fill:none;stroke:#FFE67D;stroke-width:0.5737;stroke-linecap:round;stroke-miterlimit:10;}
	
		.st62{clip-path:url(#SVGID_00000128479710920718646370000003059857897193438112_);fill:none;stroke:#FFE67D;stroke-width:0.5737;stroke-linecap:round;stroke-miterlimit:10;}
	
		.st63{clip-path:url(#SVGID_00000062171616229229327090000006295592886975677882_);fill:none;stroke:#FFE67D;stroke-width:0.5737;stroke-linecap:round;stroke-miterlimit:10;}
	.st64{opacity:0.89;}
	.st65{fill:#CADAFF;}
	.st66{fill:#D1DFFF;}
	.st67{fill:none;stroke:#FFE67D;stroke-width:0.5557;stroke-linecap:round;stroke-miterlimit:10;}
	
		.st68{clip-path:url(#SVGID_00000130648700380261541080000010867211272421455262_);fill:none;stroke:#FFE67D;stroke-width:0.5737;stroke-linecap:round;stroke-miterlimit:10;}
	
		.st69{clip-path:url(#SVGID_00000119820088175876496890000014431591419775031439_);fill:none;stroke:#FFE67D;stroke-width:0.5737;stroke-linecap:round;stroke-miterlimit:10;}
	.st70{opacity:0.84;}
	.st71{fill:#FCDCFF;}
	.st72{fill:none;stroke:#FFE67D;stroke-width:0.4588;stroke-linecap:round;stroke-miterlimit:10;}
	
		.st73{clip-path:url(#SVGID_00000078002762471883683930000001120077572101087383_);fill:none;stroke:#FFE67D;stroke-width:0.5737;stroke-linecap:round;stroke-miterlimit:10;}
	
		.st74{clip-path:url(#SVGID_00000023960560147184811310000013501106471395905715_);fill:none;stroke:#FFE67D;stroke-width:0.5737;stroke-linecap:round;stroke-miterlimit:10;}
	
		.st75{clip-path:url(#SVGID_00000027605282173065271120000011292864340356429957_);fill:none;stroke:#FFE67D;stroke-width:0.5737;stroke-linecap:round;stroke-miterlimit:10;}
	
		.st76{clip-path:url(#SVGID_00000014598187676903329560000017930514252904382338_);fill:none;stroke:#FFE67D;stroke-width:0.5737;stroke-linecap:round;stroke-miterlimit:10;}
	
		.st77{clip-path:url(#SVGID_00000075136317150945925910000017747945443562024337_);fill:none;stroke:#FFE67D;stroke-width:0.5737;stroke-linecap:round;stroke-miterlimit:10;}
	
		.st78{clip-path:url(#SVGID_00000035507817581647368980000008267131058596597917_);fill:none;stroke:#FFE67D;stroke-width:0.5737;stroke-linecap:round;stroke-miterlimit:10;}
	.st79{fill:#F792FF;}
	
		.st80{clip-path:url(#SVGID_00000041996156348375855490000004233692420275904414_);fill:none;stroke:#FFE67D;stroke-width:0.5737;stroke-linecap:round;stroke-miterlimit:10;}
	
		.st81{clip-path:url(#SVGID_00000022556957714403345420000002415069677959387061_);fill:none;stroke:#FFE67D;stroke-width:0.5737;stroke-linecap:round;stroke-miterlimit:10;}
	.st82{fill:#F87DBA;}
	
		.st83{clip-path:url(#SVGID_00000158746374312724002410000000256217637855625619_);fill:none;stroke:#FFE67D;stroke-width:0.5737;stroke-linecap:round;stroke-miterlimit:10;}
	
		.st84{clip-path:url(#SVGID_00000150798761612850363130000005041239160008343458_);fill:none;stroke:#FFE67D;stroke-width:0.5737;stroke-linecap:round;stroke-miterlimit:10;}
	.st85{fill:none;stroke:#FFE67D;stroke-width:0.5372;stroke-linecap:round;stroke-miterlimit:10;}
	.st86{fill:#875CBF;}
	
		.st87{clip-path:url(#SVGID_00000045607866369128528780000001599039111326153880_);fill:none;stroke:#FFE67D;stroke-width:0.5737;stroke-linecap:round;stroke-miterlimit:10;}
	
		.st88{clip-path:url(#SVGID_00000118384028644778731960000006546003461621292438_);fill:none;stroke:#FFE67D;stroke-width:0.5737;stroke-linecap:round;stroke-miterlimit:10;}
	.st89{fill:#AA77E0;}
	
		.st90{clip-path:url(#SVGID_00000151508236643965993210000006781284721554106805_);fill:none;stroke:#FFE67D;stroke-width:0.5737;stroke-linecap:round;stroke-miterlimit:10;}
	
		.st91{clip-path:url(#SVGID_00000082365043249374947930000018320811961077798331_);fill:none;stroke:#FFE67D;stroke-width:0.5737;stroke-linecap:round;stroke-miterlimit:10;}
</style>
<g>
	<path class="st1" d="M11.4,34.43c-0.14,0-0.28-0.03-0.42-0.08c-0.19-0.08-1.91-0.78-2.79-2.43s-0.54-3.47-0.5-3.67
		c0.07-0.33,0.28-0.61,0.57-0.77c0.17-0.09,0.35-0.14,0.54-0.14c0.14,0,0.28,0.03,0.42,0.08c0.19,0.08,1.91,0.78,2.79,2.43
		c0.89,1.65,0.54,3.47,0.5,3.67c-0.07,0.33-0.28,0.61-0.57,0.77C11.77,34.38,11.58,34.43,11.4,34.43z"/>
	<path class="st86" d="M16.46,11.12c0.04-0.28,0.08-0.55,0.13-0.82c0.7-0.31,1.19-1,1.19-1.82V6.74c0-1.1-0.9-2-2-2h-1.86
		c-0.13-0.98-0.96-1.73-1.97-1.73H8.57c-1.01,0-1.84,0.76-1.97,1.73H4.74c-1.1,0-2,0.9-2,2v1.74c0,0.82,0.49,1.51,1.2,1.82
		c0.04,0.27,0.09,0.55,0.13,0.82c0,0,0,0,0,0c0,0,0,0,0,0c1.26,8.52,1.26,17.2,0.01,25.78c0,0,0,0,0,0c0,0,0,0,0,0
		c-0.03,0.18-0.06,0.36-0.09,0.54c-0.73,0.3-1.25,0.99-1.25,1.83V41c0,1.1,0.9,2,2,2h1.86c0.13,0.98,0.96,1.73,1.97,1.73h3.38
		c1.01,0,1.84-0.75,1.97-1.73h1.86c1.1,0,2-0.9,2-2v-1.74c0-0.84-0.52-1.53-1.25-1.83c-0.03-0.17-0.06-0.36-0.08-0.53c0,0,0,0,0,0
		c0,0,0,0,0,0C15.23,28.35,15.24,19.67,16.46,11.12C16.46,11.12,16.46,11.12,16.46,11.12z"/>
	<g>
		<g>
			<g>
				<path class="st17" d="M15.88,7.61c-0.2,1.11-0.38,2.23-0.54,3.34l-10.15,0C5.02,9.84,4.84,8.72,4.63,7.61L15.88,7.61z"/>
				<path class="st2" d="M15.32,37.07l-10.13,0c1.27-8.72,1.27-17.43-0.01-26.11l10.15,0C14.09,19.66,14.08,28.36,15.32,37.07z"/>
				<path class="st17" d="M15.88,40.54l-11.25,0c0.21-1.16,0.4-2.31,0.57-3.47l10.13,0C15.48,38.23,15.67,39.38,15.88,40.54z"/>
				<rect x="7.7" y="4.14" class="st2" width="5.11" height="3.46"/>
				<rect x="3.87" y="5.87" class="st18" width="12.77" height="3.46"/>
				<rect x="7.7" y="40.14" class="st2" width="5.11" height="3.46"/>
				<rect x="3.87" y="38.4" class="st18" width="12.77" height="3.46"/>
			</g>
		</g>
		<g>
			<defs>
				<path id="SVGID_00000055701164246048532000000015368230188723855249_" d="M15.32,37.07l-10.13,0
					c1.27-8.72,1.27-17.43-0.01-26.11l10.15,0C14.09,19.66,14.08,28.36,15.32,37.07z"/>
			</defs>
			<clipPath id="SVGID_00000173136453345095632090000013639428668179445663_">
				<use xlink:href="#SVGID_00000055701164246048532000000015368230188723855249_"  style="overflow:visible;"/>
			</clipPath>
			
				<path style="clip-path:url(#SVGID_00000173136453345095632090000013639428668179445663_);fill:none;stroke:#FFE67D;stroke-width:0.5737;stroke-linecap:round;stroke-miterlimit:10;" d="
				M15.36,10.84c-1.11,1.2-2.22,2.4-3.33,3.59c-0.43,0.46-0.86,0.93-1.16,1.49s-0.45,1.22-0.27,1.83s0.74,1.12,1.37,1.12
				c0.34,0,0.67-0.15,0.9-0.39c0.23-0.25,0.35-0.59,0.32-0.92c-0.02-0.25-0.12-0.49-0.3-0.66c-0.18-0.17-0.45-0.25-0.69-0.17
				c-0.24,0.07-0.42,0.31-0.41,0.56c0.01,0.21,0.29,0.57,0.52,0.4"/>
			
				<path style="clip-path:url(#SVGID_00000173136453345095632090000013639428668179445663_);fill:none;stroke:#FFE67D;stroke-width:0.5737;stroke-linecap:round;stroke-miterlimit:10;" d="
				M9.7,15.08c-0.68,0.37-1.26,0.93-1.65,1.61c-0.81,1.4-0.83,3.25-1.96,4.41c-0.32,0.33-0.79,0.59-1.23,0.47"/>
			
				<path style="clip-path:url(#SVGID_00000173136453345095632090000013639428668179445663_);fill:none;stroke:#FFE67D;stroke-width:0.5737;stroke-linecap:round;stroke-miterlimit:10;" d="
				M15.59,37.4c-0.56-0.41-0.93-1.42-1.37-1.98c-0.61-0.78-1.42-1.37-2.37-1.69c-1.05-0.36-2.31-0.43-3.26-1.02
				c-1.07-0.66-1.37-1.96-1.66-3.11c-0.06-0.25-0.56-2.62-1.27-1.9"/>
			
				<path style="clip-path:url(#SVGID_00000173136453345095632090000013639428668179445663_);fill:none;stroke:#FFE67D;stroke-width:0.5737;stroke-linecap:round;stroke-miterlimit:10;" d="
				M11.01,30.39c0.72,1.33,0.38,2.9,0.38,2.9s-1.49-0.59-2.21-1.91c-0.72-1.33-0.38-2.9-0.38-2.9S10.3,29.07,11.01,30.39z"/>
			
				<path style="clip-path:url(#SVGID_00000173136453345095632090000013639428668179445663_);fill:none;stroke:#FFE67D;stroke-width:0.5737;stroke-linecap:round;stroke-miterlimit:10;" d="
				M9.18,22.04c0.72,1.33,0.38,2.9,0.38,2.9s-1.49-0.59-2.21-1.91c-0.72-1.33-0.38-2.9-0.38-2.9S8.46,20.71,9.18,22.04z"/>
			
				<path style="clip-path:url(#SVGID_00000173136453345095632090000013639428668179445663_);fill:none;stroke:#FFE67D;stroke-width:0.5737;stroke-linecap:round;stroke-miterlimit:10;" d="
				M15.42,18.49c-0.25,0.76-0.67,1.54-1.13,2.22c-0.74,1.12-1.84,1.94-2.46,3.15c-0.75,1.46-1.08,3.37-0.25,4.87
				c0.3,0.53,0.73,0.91,1.17,1.32c0.5,0.46,1.01,0.92,1.53,1.35c0.52,0.42,1,0.83,1.3,1.45c0.19,0.4,0.49,0.92,0.39,1.34"/>
			
				<path style="clip-path:url(#SVGID_00000173136453345095632090000013639428668179445663_);fill:none;stroke:#FFE67D;stroke-width:0.5737;stroke-linecap:round;stroke-miterlimit:10;" d="
				M10.55,16.91c-0.08-1.08-0.58-2.11-1.35-2.86c-0.81-0.79-1.99-1.1-2.75-1.94c-0.51-0.57-0.6-1.13-0.55-1.86"/>
		</g>
	</g>
</g>
</svg>
